<svg width="161" height="160" viewBox="0 0 161 160" fill="none" xmlns="http://www.w3.org/2000/svg">
<path d="M80.3046 160C124.487 160 160.305 124.183 160.305 80C160.305 35.8172 124.487 0 80.3046 0C36.1219 0 0.304688 35.8172 0.304688 80C0.304688 124.183 36.1219 160 80.3046 160Z" fill="#00ADEF"/>
<path d="M120.493 46.4166C121.507 47.2338 106.478 67.15 86.9319 90.8799L75.0687 105.045L73.4398 106.982L71.7188 105.227C56.352 89.6995 45.9947 78.1977 46.7323 77.4713C47.4699 76.7449 59.1794 87.0056 74.915 102.049L71.5958 102.382L83.2131 88.065C102.76 64.1838 119.448 45.5993 120.493 46.4166Z" fill="white"/>
</svg>
