<svg width="525" height="295" viewBox="0 0 525 295" fill="none" xmlns="http://www.w3.org/2000/svg">
<path d="M403.305 182.13C400.615 173.141 388.305 174.024 388.305 174.024L388.615 180.267C395.753 179.09 400.167 187 400.167 187L403.305 182.13Z" fill="#00ADEF"/>
<path d="M84.3047 195.141C81.8265 186.174 70.3047 187.021 70.3047 187.021L70.6265 193.282C77.2886 192.109 81.4081 200 81.4081 200L84.3047 195.141Z" fill="#E3E5E6"/>
<path d="M302.859 67.3046C315.467 71.4465 323.305 55.7336 323.305 55.7336L315.649 51C311.882 60.6316 299.305 59.5139 299.305 59.5139L302.859 67.3046Z" fill="#E3E5E6"/>
<path d="M521.364 279C515.056 279.68 514.305 287.514 514.305 287.514L518.52 288C518.52 283.403 524.305 281.525 524.305 281.525L521.364 279Z" fill="#00ADEF"/>
<path d="M482.228 165.649C483.126 158.912 475.812 156 475.812 156L474.305 160.246C478.732 161.474 479.149 168 479.149 168L482.228 165.649Z" fill="#E3E5E6"/>
<path d="M225.228 49.0409C226.126 43.4269 218.812 41 218.812 41L217.305 44.5673C221.732 45.5906 222.149 51 222.149 51L225.228 49.0409Z" fill="#00ADEF"/>
<path d="M0.370543 271.284C-0.716064 281.484 12.0036 284 12.0036 284L14.3047 277.2C6.66648 276.452 5.57983 267 5.57983 267L0.370543 271.284Z" fill="#00ADEF"/>
<path d="M496.823 137.987C503.25 138.367 505.305 130.244 505.305 130.244L501.163 129C500.401 133.839 494.305 134.842 494.305 134.842L496.823 137.987Z" fill="#00ADEF"/>
<path d="M488.66 93.0773C486.978 93.5492 485.224 93.7136 483.482 93.5627C481.741 93.7172 479.987 93.5527 478.305 93.0773C481.722 92.387 485.243 92.387 488.66 93.0773V93.0773Z" fill="#CDCFD0"/>
<path d="M494.162 79C494.809 82.465 494.809 86.02 494.162 89.485C493.471 86.0241 493.471 82.4609 494.162 79V79Z" fill="#CDCFD0"/>
<path d="M499.987 92.7214C501.669 92.2495 503.424 92.085 505.165 92.2359C506.906 92.0814 508.66 92.246 510.342 92.7214C506.925 93.4117 503.404 93.4117 499.987 92.7214V92.7214Z" fill="#CDCFD0"/>
<path d="M494.518 106.831C493.827 103.359 493.827 99.7852 494.518 96.3135C495.165 99.7894 495.165 103.355 494.518 106.831Z" fill="#CDCFD0"/>
<path d="M502.867 100.941C502.673 101.102 501.67 100.261 500.634 99.0637C499.599 97.8664 498.984 96.7014 499.178 96.5396C499.372 96.3778 500.408 97.1868 501.411 98.4165C502.414 99.6463 503.094 100.585 502.867 100.941Z" fill="#CDCFD0"/>
<path d="M502.382 84.7603C502.576 84.9868 501.896 85.99 500.828 87.0579C499.76 88.1258 498.757 88.8377 498.563 88.6436C498.369 88.4494 499.049 87.4139 500.116 86.346C501.184 85.278 502.187 84.7603 502.382 84.7603Z" fill="#CDCFD0"/>
<path d="M490.538 88.8702C490.343 89.0967 489.372 88.5789 488.369 87.7375C487.366 86.8961 486.719 86.0547 486.881 85.8606C487.043 85.6664 488.013 86.1518 489.017 86.9608C490.02 87.7699 490.699 88.676 490.538 88.8702Z" fill="#CDCFD0"/>
<path d="M490.052 95.925C490.279 96.0868 489.664 97.09 488.693 98.1579C487.722 99.2259 486.784 99.9054 486.589 99.7113C486.395 99.5171 486.978 98.5139 487.949 97.4783C488.919 96.4428 489.858 95.7309 490.052 95.925Z" fill="#CDCFD0"/>
<path d="M123.66 14.0768C120.243 14.7671 116.722 14.7671 113.305 14.0768C114.987 13.6049 116.741 13.4405 118.482 13.5914C120.223 13.4369 121.978 13.6014 123.66 14.0768Z" fill="#00ADEF"/>
<path d="M129.162 0C129.852 3.47177 129.852 7.04555 129.162 10.5173C128.471 7.04555 128.471 3.47177 129.162 0Z" fill="#00ADEF"/>
<path d="M135.019 13.7531C138.437 13.0628 141.957 13.0628 145.375 13.7531C141.957 14.4435 138.437 14.4435 135.019 13.7531Z" fill="#00ADEF"/>
<path d="M129.518 27.8301C128.827 24.3693 128.827 20.8061 129.518 17.3452C130.208 20.8061 130.208 24.3693 129.518 27.8301V27.8301Z" fill="#00ADEF"/>
<path d="M137.899 21.6821C137.673 21.8762 136.669 21.0348 135.666 19.8051C134.663 18.5754 133.983 17.4751 134.21 17.281C134.436 17.0868 135.407 17.9606 136.443 19.1579C137.478 20.3553 138.093 21.6821 137.899 21.6821Z" fill="#00ADEF"/>
<path d="M137.414 5.82506C137.608 6.01922 136.896 7.05474 135.861 8.12266C134.825 9.19057 133.789 9.87013 133.595 9.67597C133.401 9.4818 134.081 8.47862 135.149 7.41071C136.217 6.3428 137.22 5.50145 137.414 5.82506Z" fill="#00ADEF"/>
<path d="M125.537 9.90236C125.375 10.0965 124.405 9.61109 123.401 8.76971C122.398 7.92832 121.719 7.08695 121.913 6.86042C122.107 6.6339 123.045 7.15169 124.049 7.99308C125.052 8.83446 125.731 9.67583 125.537 9.90236Z" fill="#00ADEF"/>
<path d="M125.084 16.9249C125.279 17.1191 124.664 18.1223 123.725 19.1902C122.787 20.2581 121.816 20.9377 121.589 20.7435C121.363 20.5494 122.01 19.5462 122.949 18.5106C123.887 17.4751 124.858 16.7308 125.084 16.9249Z" fill="#00ADEF"/>
<path d="M14.4863 121.524L21.5354 135.888" stroke="#FFC462" stroke-width="2" stroke-linecap="round" stroke-linejoin="round"/>
<path d="M25.1926 125.182L10.8291 132.231" stroke="#FFC462" stroke-width="2" stroke-linecap="round" stroke-linejoin="round"/>
<path d="M445.737 248.865L442.003 260.27" stroke="#45A3F5" stroke-width="2" stroke-linecap="round" stroke-linejoin="round"/>
<path d="M449.652 256.202L438.248 252.468" stroke="#45A3F5" stroke-width="2" stroke-linecap="round" stroke-linejoin="round"/>
<circle cx="465.305" cy="37" r="8" stroke="#FF6D6D" stroke-width="2"/>
<g filter="url(#filter0_f_90_933)">
<circle cx="129.305" cy="113" r="8" fill="#4CD571"/>
</g>
<g filter="url(#filter1_f_90_933)">
<circle cx="397.305" cy="101" r="4" fill="#FF5247"/>
</g>
<g filter="url(#filter2_f_90_933)">
<circle cx="119.305" cy="273" r="6" fill="#FFC462"/>
</g>
<defs>
<filter id="filter0_f_90_933" x="105.305" y="89" width="48" height="48" filterUnits="userSpaceOnUse" color-interpolation-filters="sRGB">
<feFlood flood-opacity="0" result="BackgroundImageFix"/>
<feBlend mode="normal" in="SourceGraphic" in2="BackgroundImageFix" result="shape"/>
<feGaussianBlur stdDeviation="8" result="effect1_foregroundBlur_90_933"/>
</filter>
<filter id="filter1_f_90_933" x="385.305" y="89" width="24" height="24" filterUnits="userSpaceOnUse" color-interpolation-filters="sRGB">
<feFlood flood-opacity="0" result="BackgroundImageFix"/>
<feBlend mode="normal" in="SourceGraphic" in2="BackgroundImageFix" result="shape"/>
<feGaussianBlur stdDeviation="4" result="effect1_foregroundBlur_90_933"/>
</filter>
<filter id="filter2_f_90_933" x="97.3047" y="251" width="44" height="44" filterUnits="userSpaceOnUse" color-interpolation-filters="sRGB">
<feFlood flood-opacity="0" result="BackgroundImageFix"/>
<feBlend mode="normal" in="SourceGraphic" in2="BackgroundImageFix" result="shape"/>
<feGaussianBlur stdDeviation="8" result="effect1_foregroundBlur_90_933"/>
</filter>
</defs>
</svg>
